<mxfile host="app.diagrams.net" modified="2024-02-17T15:10:47.935Z" agent="Mozilla/5.0 (Macintosh; Intel Mac OS X 10_15_7) AppleWebKit/537.36 (KHTML, like Gecko) Chrome/121.0.0.0 Safari/537.36" etag="iHCpItTu9bIHaqGnBw6o" version="23.1.5" type="google">
  <diagram name="Page-1" id="LeOLQL7kn8oDm4MNwWC2">
    <mxGraphModel grid="1" page="1" gridSize="10" guides="1" tooltips="1" connect="1" arrows="1" fold="1" pageScale="1" pageWidth="850" pageHeight="1100" math="0" shadow="0">
      <root>
        <mxCell id="0" />
        <mxCell id="1" parent="0" />
        <mxCell id="trDlRnOF70XWSZehvZli-33" value="" style="group" connectable="0" vertex="1" parent="1">
          <mxGeometry width="400" height="180" as="geometry" />
        </mxCell>
        <mxCell id="trDlRnOF70XWSZehvZli-3" value="" style="rounded=0;whiteSpace=wrap;html=1;fillColor=#dae8fc;strokeColor=#6c8ebf;fontSize=9;" vertex="1" parent="trDlRnOF70XWSZehvZli-33">
          <mxGeometry x="142.85714285714286" y="60" width="114.28571428571428" height="60" as="geometry" />
        </mxCell>
        <mxCell id="trDlRnOF70XWSZehvZli-4" value="" style="rounded=0;whiteSpace=wrap;html=1;fillColor=#d5e8d4;strokeColor=#82b366;fontSize=9;" vertex="1" parent="trDlRnOF70XWSZehvZli-33">
          <mxGeometry x="285.7142857142857" width="114.28571428571428" height="60" as="geometry" />
        </mxCell>
        <mxCell id="trDlRnOF70XWSZehvZli-9" style="edgeStyle=orthogonalEdgeStyle;rounded=0;orthogonalLoop=1;jettySize=auto;html=1;entryX=0;entryY=0.5;entryDx=0;entryDy=0;" edge="1" parent="trDlRnOF70XWSZehvZli-33" source="trDlRnOF70XWSZehvZli-3" target="trDlRnOF70XWSZehvZli-4">
          <mxGeometry relative="1" as="geometry">
            <Array as="points">
              <mxPoint x="219.04761904761904" y="30" />
            </Array>
          </mxGeometry>
        </mxCell>
        <mxCell id="trDlRnOF70XWSZehvZli-5" value="" style="rounded=0;whiteSpace=wrap;html=1;fillColor=#d5e8d4;strokeColor=#82b366;fontSize=9;" vertex="1" parent="trDlRnOF70XWSZehvZli-33">
          <mxGeometry x="285.7142857142857" y="120" width="114.28571428571428" height="60" as="geometry" />
        </mxCell>
        <mxCell id="trDlRnOF70XWSZehvZli-11" style="edgeStyle=orthogonalEdgeStyle;rounded=0;orthogonalLoop=1;jettySize=auto;html=1;exitX=0.5;exitY=1;exitDx=0;exitDy=0;entryX=0;entryY=0.5;entryDx=0;entryDy=0;" edge="1" parent="trDlRnOF70XWSZehvZli-33" source="trDlRnOF70XWSZehvZli-3" target="trDlRnOF70XWSZehvZli-5">
          <mxGeometry relative="1" as="geometry">
            <Array as="points">
              <mxPoint x="219.04761904761904" y="120" />
              <mxPoint x="219.04761904761904" y="150" />
            </Array>
          </mxGeometry>
        </mxCell>
        <mxCell id="trDlRnOF70XWSZehvZli-6" value="" style="rounded=0;whiteSpace=wrap;html=1;fillColor=#d5e8d4;strokeColor=#82b366;fontSize=9;" vertex="1" parent="trDlRnOF70XWSZehvZli-33">
          <mxGeometry width="114.28571428571428" height="60" as="geometry" />
        </mxCell>
        <mxCell id="trDlRnOF70XWSZehvZli-8" style="edgeStyle=orthogonalEdgeStyle;rounded=0;orthogonalLoop=1;jettySize=auto;html=1;exitX=0.5;exitY=0;exitDx=0;exitDy=0;entryX=1;entryY=0.5;entryDx=0;entryDy=0;" edge="1" parent="trDlRnOF70XWSZehvZli-33" source="trDlRnOF70XWSZehvZli-3" target="trDlRnOF70XWSZehvZli-6">
          <mxGeometry relative="1" as="geometry">
            <Array as="points">
              <mxPoint x="180.95238095238093" y="60" />
              <mxPoint x="180.95238095238093" y="30" />
            </Array>
          </mxGeometry>
        </mxCell>
        <mxCell id="trDlRnOF70XWSZehvZli-7" value="" style="rounded=0;whiteSpace=wrap;html=1;fillColor=#d5e8d4;strokeColor=#82b366;fontSize=9;" vertex="1" parent="trDlRnOF70XWSZehvZli-33">
          <mxGeometry y="120" width="114.28571428571428" height="60" as="geometry" />
        </mxCell>
        <mxCell id="trDlRnOF70XWSZehvZli-12" style="edgeStyle=orthogonalEdgeStyle;rounded=0;orthogonalLoop=1;jettySize=auto;html=1;entryX=1;entryY=0.5;entryDx=0;entryDy=0;" edge="1" parent="trDlRnOF70XWSZehvZli-33" source="trDlRnOF70XWSZehvZli-3" target="trDlRnOF70XWSZehvZli-7">
          <mxGeometry relative="1" as="geometry">
            <Array as="points">
              <mxPoint x="180.95238095238093" y="150" />
            </Array>
          </mxGeometry>
        </mxCell>
        <mxCell id="trDlRnOF70XWSZehvZli-13" value="" style="endArrow=none;html=1;rounded=0;entryX=1;entryY=0.5;entryDx=0;entryDy=0;exitX=0;exitY=0.5;exitDx=0;exitDy=0;fillColor=#dae8fc;strokeColor=#6c8ebf;fontSize=9;" edge="1" parent="trDlRnOF70XWSZehvZli-33">
          <mxGeometry width="50" height="50" relative="1" as="geometry">
            <mxPoint x="142.85714285714286" y="80" as="sourcePoint" />
            <mxPoint x="257.1428571428571" y="80" as="targetPoint" />
            <Array as="points">
              <mxPoint x="200" y="80" />
            </Array>
          </mxGeometry>
        </mxCell>
        <mxCell id="trDlRnOF70XWSZehvZli-15" value="" style="endArrow=none;html=1;rounded=0;entryX=1;entryY=0.5;entryDx=0;entryDy=0;exitX=0;exitY=0.5;exitDx=0;exitDy=0;fillColor=#d5e8d4;strokeColor=#82b366;fontSize=9;" edge="1" parent="trDlRnOF70XWSZehvZli-33">
          <mxGeometry width="50" height="50" relative="1" as="geometry">
            <mxPoint x="285.7142857142857" y="20" as="sourcePoint" />
            <mxPoint x="400" y="20" as="targetPoint" />
            <Array as="points">
              <mxPoint x="342.85714285714283" y="20" />
            </Array>
          </mxGeometry>
        </mxCell>
        <mxCell id="trDlRnOF70XWSZehvZli-16" value="" style="endArrow=none;html=1;rounded=0;entryX=1;entryY=0.5;entryDx=0;entryDy=0;exitX=0;exitY=0.5;exitDx=0;exitDy=0;fillColor=#d5e8d4;strokeColor=#82b366;fontSize=9;" edge="1" parent="trDlRnOF70XWSZehvZli-33">
          <mxGeometry width="50" height="50" relative="1" as="geometry">
            <mxPoint y="20" as="sourcePoint" />
            <mxPoint x="114.28571428571428" y="20" as="targetPoint" />
            <Array as="points">
              <mxPoint x="57.14285714285714" y="20" />
            </Array>
          </mxGeometry>
        </mxCell>
        <mxCell id="trDlRnOF70XWSZehvZli-17" value="" style="endArrow=none;html=1;rounded=0;entryX=1;entryY=0.5;entryDx=0;entryDy=0;exitX=0;exitY=0.5;exitDx=0;exitDy=0;fillColor=#d5e8d4;strokeColor=#82b366;fontSize=9;" edge="1" parent="trDlRnOF70XWSZehvZli-33">
          <mxGeometry width="50" height="50" relative="1" as="geometry">
            <mxPoint y="140" as="sourcePoint" />
            <mxPoint x="114.28571428571428" y="140" as="targetPoint" />
            <Array as="points">
              <mxPoint x="57.14285714285714" y="140" />
            </Array>
          </mxGeometry>
        </mxCell>
        <mxCell id="trDlRnOF70XWSZehvZli-18" value="" style="endArrow=none;html=1;rounded=0;entryX=1;entryY=0.5;entryDx=0;entryDy=0;exitX=0;exitY=0.5;exitDx=0;exitDy=0;fillColor=#d5e8d4;strokeColor=#82b366;fontSize=9;" edge="1" parent="trDlRnOF70XWSZehvZli-33">
          <mxGeometry width="50" height="50" relative="1" as="geometry">
            <mxPoint x="285.7142857142857" y="140" as="sourcePoint" />
            <mxPoint x="400" y="140" as="targetPoint" />
            <Array as="points">
              <mxPoint x="342.85714285714283" y="140" />
            </Array>
          </mxGeometry>
        </mxCell>
        <mxCell id="trDlRnOF70XWSZehvZli-19" value="&lt;font style=&quot;font-size: 9px;&quot;&gt;Medication Reminder&lt;/font&gt;" style="text;html=1;align=center;verticalAlign=middle;whiteSpace=wrap;rounded=0;fillColor=#dae8fc;strokeColor=#6c8ebf;fontSize=9;" vertex="1" parent="trDlRnOF70XWSZehvZli-33">
          <mxGeometry x="142.85714285714286" y="60" width="114.28571428571428" height="20" as="geometry" />
        </mxCell>
        <mxCell id="trDlRnOF70XWSZehvZli-20" value="Service Endpoint" style="text;html=1;align=center;verticalAlign=middle;whiteSpace=wrap;rounded=0;fillColor=#d5e8d4;strokeColor=#82b366;fontSize=9;" vertex="1" parent="trDlRnOF70XWSZehvZli-33">
          <mxGeometry x="285.7142857142857" width="114.28571428571428" height="20" as="geometry" />
        </mxCell>
        <mxCell id="trDlRnOF70XWSZehvZli-21" value="Input" style="text;html=1;align=center;verticalAlign=middle;whiteSpace=wrap;rounded=0;fillColor=#d5e8d4;strokeColor=#82b366;fontSize=9;" vertex="1" parent="trDlRnOF70XWSZehvZli-33">
          <mxGeometry width="114.28571428571428" height="20" as="geometry" />
        </mxCell>
        <mxCell id="trDlRnOF70XWSZehvZli-22" value="Output" style="text;html=1;align=center;verticalAlign=middle;whiteSpace=wrap;rounded=0;fillColor=#d5e8d4;strokeColor=#82b366;fontSize=9;" vertex="1" parent="trDlRnOF70XWSZehvZli-33">
          <mxGeometry y="120" width="114.28571428571428" height="20" as="geometry" />
        </mxCell>
        <mxCell id="trDlRnOF70XWSZehvZli-23" value="Precondition" style="text;html=1;align=center;verticalAlign=middle;whiteSpace=wrap;rounded=0;fillColor=#d5e8d4;strokeColor=#82b366;fontSize=9;" vertex="1" parent="trDlRnOF70XWSZehvZli-33">
          <mxGeometry x="285.7142857142857" y="120" width="114.28571428571428" height="20" as="geometry" />
        </mxCell>
        <mxCell id="trDlRnOF70XWSZehvZli-24" value="has to be in" style="text;html=1;align=center;verticalAlign=middle;whiteSpace=wrap;rounded=0;fontSize=9;" vertex="1" parent="trDlRnOF70XWSZehvZli-33">
          <mxGeometry x="219.04761904761904" y="150" width="57.14285714285714" height="10" as="geometry" />
        </mxCell>
        <mxCell id="trDlRnOF70XWSZehvZli-25" value="has output" style="text;html=1;align=center;verticalAlign=middle;whiteSpace=wrap;rounded=0;fontSize=9;" vertex="1" parent="trDlRnOF70XWSZehvZli-33">
          <mxGeometry x="123.8095238095238" y="150" width="57.14285714285714" height="10" as="geometry" />
        </mxCell>
        <mxCell id="trDlRnOF70XWSZehvZli-26" value="Endpoint" style="text;html=1;align=center;verticalAlign=middle;whiteSpace=wrap;rounded=0;fontSize=9;" vertex="1" parent="trDlRnOF70XWSZehvZli-33">
          <mxGeometry x="219.04761904761904" y="20" width="57.14285714285714" height="10" as="geometry" />
        </mxCell>
        <mxCell id="trDlRnOF70XWSZehvZli-27" value="has input" style="text;html=1;align=center;verticalAlign=middle;whiteSpace=wrap;rounded=0;fontSize=9;" vertex="1" parent="trDlRnOF70XWSZehvZli-33">
          <mxGeometry x="123.8095238095238" y="20" width="57.14285714285714" height="10" as="geometry" />
        </mxCell>
        <mxCell id="trDlRnOF70XWSZehvZli-28" value="&amp;nbsp;Visual and Audio Alert&lt;span id=&quot;docs-internal-guid-0cf1a0e6-7fff-4cee-fd8e-f73ecc246064&quot;&gt;&lt;/span&gt;" style="text;html=1;align=left;verticalAlign=top;whiteSpace=wrap;rounded=0;fillColor=#d5e8d4;strokeColor=#82b366;fontSize=9;" vertex="1" parent="trDlRnOF70XWSZehvZli-33">
          <mxGeometry y="140" width="114.28571428571428" height="40" as="geometry" />
        </mxCell>
        <mxCell id="trDlRnOF70XWSZehvZli-29" value="Reminder Time: Time&lt;span id=&quot;docs-internal-guid-0d0c9289-7fff-2301-1735-47998b753330&quot;&gt;&lt;/span&gt;" style="text;html=1;align=left;verticalAlign=top;whiteSpace=wrap;rounded=0;fillColor=#d5e8d4;strokeColor=#82b366;fontSize=9;" vertex="1" parent="trDlRnOF70XWSZehvZli-33">
          <mxGeometry y="20" width="114.28571428571428" height="40" as="geometry" />
        </mxCell>
        <mxCell id="trDlRnOF70XWSZehvZli-30" value="endpoint: Internal Trigger&lt;br&gt;Schedule: As per Medication Schedule" style="text;html=1;align=left;verticalAlign=top;whiteSpace=wrap;rounded=0;fillColor=#d5e8d4;strokeColor=#82b366;fontSize=9;" vertex="1" parent="trDlRnOF70XWSZehvZli-33">
          <mxGeometry x="285.7142857142857" y="20" width="114.28571428571428" height="40" as="geometry" />
        </mxCell>
        <mxCell id="trDlRnOF70XWSZehvZli-31" value="Medication Box Locked &amp;amp; Loaded&lt;span id=&quot;docs-internal-guid-0d862d84-7fff-1ddb-3f8d-e0cf7e17996a&quot;&gt;&lt;/span&gt;" style="text;html=1;align=left;verticalAlign=top;whiteSpace=wrap;rounded=0;fillColor=#d5e8d4;strokeColor=#82b366;fontSize=9;" vertex="1" parent="trDlRnOF70XWSZehvZli-33">
          <mxGeometry x="285.7142857142857" y="140" width="114.28571428571428" height="40" as="geometry" />
        </mxCell>
        <mxCell id="trDlRnOF70XWSZehvZli-32" value="&lt;div style=&quot;font-size: 9px;&quot;&gt;&lt;span style=&quot;font-size: 9px; background-color: initial;&quot;&gt;Type: Native&lt;/span&gt;&lt;/div&gt;&lt;span id=&quot;docs-internal-guid-58f0a535-7fff-b725-188e-cca8d56c5ec5&quot; style=&quot;font-size: 9px;&quot;&gt;&lt;/span&gt;" style="text;html=1;align=left;verticalAlign=top;whiteSpace=wrap;rounded=0;fillColor=#dae8fc;strokeColor=#6c8ebf;fontSize=9;" vertex="1" parent="trDlRnOF70XWSZehvZli-33">
          <mxGeometry x="142.85714285714286" y="80" width="114.28571428571428" height="40" as="geometry" />
        </mxCell>
        <mxCell id="trDlRnOF70XWSZehvZli-34" value="" style="group" connectable="0" vertex="1" parent="1">
          <mxGeometry y="190" width="400" height="180" as="geometry" />
        </mxCell>
        <mxCell id="trDlRnOF70XWSZehvZli-35" value="" style="rounded=0;whiteSpace=wrap;html=1;fillColor=#dae8fc;strokeColor=#6c8ebf;fontSize=9;" vertex="1" parent="trDlRnOF70XWSZehvZli-34">
          <mxGeometry x="142.85714285714286" y="60" width="114.28571428571428" height="60" as="geometry" />
        </mxCell>
        <mxCell id="trDlRnOF70XWSZehvZli-36" value="" style="rounded=0;whiteSpace=wrap;html=1;fontSize=9;fillColor=#d5e8d4;strokeColor=#82b366;" vertex="1" parent="trDlRnOF70XWSZehvZli-34">
          <mxGeometry x="285.7142857142857" width="114.28571428571428" height="60" as="geometry" />
        </mxCell>
        <mxCell id="trDlRnOF70XWSZehvZli-37" style="edgeStyle=orthogonalEdgeStyle;rounded=0;orthogonalLoop=1;jettySize=auto;html=1;entryX=0;entryY=0.5;entryDx=0;entryDy=0;" edge="1" parent="trDlRnOF70XWSZehvZli-34" source="trDlRnOF70XWSZehvZli-35" target="trDlRnOF70XWSZehvZli-36">
          <mxGeometry relative="1" as="geometry">
            <Array as="points">
              <mxPoint x="219.04761904761904" y="30" />
            </Array>
          </mxGeometry>
        </mxCell>
        <mxCell id="trDlRnOF70XWSZehvZli-38" value="" style="rounded=0;whiteSpace=wrap;html=1;fontSize=9;fillColor=#d5e8d4;strokeColor=#82b366;" vertex="1" parent="trDlRnOF70XWSZehvZli-34">
          <mxGeometry x="285.7142857142857" y="120" width="114.28571428571428" height="60" as="geometry" />
        </mxCell>
        <mxCell id="trDlRnOF70XWSZehvZli-39" style="edgeStyle=orthogonalEdgeStyle;rounded=0;orthogonalLoop=1;jettySize=auto;html=1;exitX=0.5;exitY=1;exitDx=0;exitDy=0;entryX=0;entryY=0.5;entryDx=0;entryDy=0;" edge="1" parent="trDlRnOF70XWSZehvZli-34" source="trDlRnOF70XWSZehvZli-35" target="trDlRnOF70XWSZehvZli-38">
          <mxGeometry relative="1" as="geometry">
            <Array as="points">
              <mxPoint x="219.04761904761904" y="120" />
              <mxPoint x="219.04761904761904" y="150" />
            </Array>
          </mxGeometry>
        </mxCell>
        <mxCell id="trDlRnOF70XWSZehvZli-40" value="" style="rounded=0;whiteSpace=wrap;html=1;fontSize=9;fillColor=#d5e8d4;strokeColor=#82b366;" vertex="1" parent="trDlRnOF70XWSZehvZli-34">
          <mxGeometry width="114.28571428571428" height="60" as="geometry" />
        </mxCell>
        <mxCell id="trDlRnOF70XWSZehvZli-41" style="edgeStyle=orthogonalEdgeStyle;rounded=0;orthogonalLoop=1;jettySize=auto;html=1;exitX=0.5;exitY=0;exitDx=0;exitDy=0;entryX=1;entryY=0.5;entryDx=0;entryDy=0;" edge="1" parent="trDlRnOF70XWSZehvZli-34" source="trDlRnOF70XWSZehvZli-35" target="trDlRnOF70XWSZehvZli-40">
          <mxGeometry relative="1" as="geometry">
            <Array as="points">
              <mxPoint x="180.95238095238093" y="60" />
              <mxPoint x="180.95238095238093" y="30" />
            </Array>
          </mxGeometry>
        </mxCell>
        <mxCell id="trDlRnOF70XWSZehvZli-42" value="" style="rounded=0;whiteSpace=wrap;html=1;fontSize=9;fillColor=#d5e8d4;strokeColor=#82b366;" vertex="1" parent="trDlRnOF70XWSZehvZli-34">
          <mxGeometry y="120" width="114.28571428571428" height="60" as="geometry" />
        </mxCell>
        <mxCell id="trDlRnOF70XWSZehvZli-43" style="edgeStyle=orthogonalEdgeStyle;rounded=0;orthogonalLoop=1;jettySize=auto;html=1;entryX=1;entryY=0.5;entryDx=0;entryDy=0;" edge="1" parent="trDlRnOF70XWSZehvZli-34" source="trDlRnOF70XWSZehvZli-35" target="trDlRnOF70XWSZehvZli-42">
          <mxGeometry relative="1" as="geometry">
            <Array as="points">
              <mxPoint x="180.95238095238093" y="150" />
            </Array>
          </mxGeometry>
        </mxCell>
        <mxCell id="trDlRnOF70XWSZehvZli-44" value="" style="endArrow=none;html=1;rounded=0;entryX=1;entryY=0.5;entryDx=0;entryDy=0;exitX=0;exitY=0.5;exitDx=0;exitDy=0;fillColor=#dae8fc;strokeColor=#6c8ebf;fontSize=9;" edge="1" parent="trDlRnOF70XWSZehvZli-34">
          <mxGeometry width="50" height="50" relative="1" as="geometry">
            <mxPoint x="142.85714285714286" y="80" as="sourcePoint" />
            <mxPoint x="257.1428571428571" y="80" as="targetPoint" />
            <Array as="points">
              <mxPoint x="200" y="80" />
            </Array>
          </mxGeometry>
        </mxCell>
        <mxCell id="trDlRnOF70XWSZehvZli-45" value="" style="endArrow=none;html=1;rounded=0;entryX=1;entryY=0.5;entryDx=0;entryDy=0;exitX=0;exitY=0.5;exitDx=0;exitDy=0;fontSize=9;fillColor=#d5e8d4;strokeColor=#82b366;" edge="1" parent="trDlRnOF70XWSZehvZli-34">
          <mxGeometry width="50" height="50" relative="1" as="geometry">
            <mxPoint x="285.7142857142857" y="20" as="sourcePoint" />
            <mxPoint x="400" y="20" as="targetPoint" />
            <Array as="points">
              <mxPoint x="342.85714285714283" y="20" />
            </Array>
          </mxGeometry>
        </mxCell>
        <mxCell id="trDlRnOF70XWSZehvZli-46" value="" style="endArrow=none;html=1;rounded=0;entryX=1;entryY=0.5;entryDx=0;entryDy=0;exitX=0;exitY=0.5;exitDx=0;exitDy=0;fontSize=9;fillColor=#d5e8d4;strokeColor=#82b366;" edge="1" parent="trDlRnOF70XWSZehvZli-34">
          <mxGeometry width="50" height="50" relative="1" as="geometry">
            <mxPoint y="20" as="sourcePoint" />
            <mxPoint x="114.28571428571428" y="20" as="targetPoint" />
            <Array as="points">
              <mxPoint x="57.14285714285714" y="20" />
            </Array>
          </mxGeometry>
        </mxCell>
        <mxCell id="trDlRnOF70XWSZehvZli-47" value="" style="endArrow=none;html=1;rounded=0;entryX=1;entryY=0.5;entryDx=0;entryDy=0;exitX=0;exitY=0.5;exitDx=0;exitDy=0;fontSize=9;fillColor=#d5e8d4;strokeColor=#82b366;" edge="1" parent="trDlRnOF70XWSZehvZli-34">
          <mxGeometry width="50" height="50" relative="1" as="geometry">
            <mxPoint y="140" as="sourcePoint" />
            <mxPoint x="114.28571428571428" y="140" as="targetPoint" />
            <Array as="points">
              <mxPoint x="57.14285714285714" y="140" />
            </Array>
          </mxGeometry>
        </mxCell>
        <mxCell id="trDlRnOF70XWSZehvZli-48" value="" style="endArrow=none;html=1;rounded=0;entryX=1;entryY=0.5;entryDx=0;entryDy=0;exitX=0;exitY=0.5;exitDx=0;exitDy=0;fontSize=9;fillColor=#d5e8d4;strokeColor=#82b366;" edge="1" parent="trDlRnOF70XWSZehvZli-34">
          <mxGeometry width="50" height="50" relative="1" as="geometry">
            <mxPoint x="285.7142857142857" y="140" as="sourcePoint" />
            <mxPoint x="400" y="140" as="targetPoint" />
            <Array as="points">
              <mxPoint x="342.85714285714283" y="140" />
            </Array>
          </mxGeometry>
        </mxCell>
        <mxCell id="trDlRnOF70XWSZehvZli-49" value="Medication Schedule&lt;span id=&quot;docs-internal-guid-c6fa6e6b-7fff-0bea-01a4-d10944387202&quot;&gt;&lt;/span&gt;" style="text;html=1;align=center;verticalAlign=middle;whiteSpace=wrap;rounded=0;fillColor=#dae8fc;strokeColor=#6c8ebf;fontSize=9;" vertex="1" parent="trDlRnOF70XWSZehvZli-34">
          <mxGeometry x="142.85714285714286" y="60" width="114.28571428571428" height="20" as="geometry" />
        </mxCell>
        <mxCell id="trDlRnOF70XWSZehvZli-50" value="Service Endpoint" style="text;html=1;align=center;verticalAlign=middle;whiteSpace=wrap;rounded=0;fontSize=9;fillColor=#d5e8d4;strokeColor=#82b366;" vertex="1" parent="trDlRnOF70XWSZehvZli-34">
          <mxGeometry x="285.7142857142857" width="114.28571428571428" height="20" as="geometry" />
        </mxCell>
        <mxCell id="trDlRnOF70XWSZehvZli-51" value="Input" style="text;html=1;align=center;verticalAlign=middle;whiteSpace=wrap;rounded=0;fontSize=9;fillColor=#d5e8d4;strokeColor=#82b366;" vertex="1" parent="trDlRnOF70XWSZehvZli-34">
          <mxGeometry width="114.28571428571428" height="20" as="geometry" />
        </mxCell>
        <mxCell id="trDlRnOF70XWSZehvZli-52" value="Output" style="text;html=1;align=center;verticalAlign=middle;whiteSpace=wrap;rounded=0;fontSize=9;fillColor=#d5e8d4;strokeColor=#82b366;" vertex="1" parent="trDlRnOF70XWSZehvZli-34">
          <mxGeometry y="120" width="114.28571428571428" height="20" as="geometry" />
        </mxCell>
        <mxCell id="trDlRnOF70XWSZehvZli-53" value="Precondition" style="text;html=1;align=center;verticalAlign=middle;whiteSpace=wrap;rounded=0;fontSize=9;fillColor=#d5e8d4;strokeColor=#82b366;" vertex="1" parent="trDlRnOF70XWSZehvZli-34">
          <mxGeometry x="285.7142857142857" y="120" width="114.28571428571428" height="20" as="geometry" />
        </mxCell>
        <mxCell id="trDlRnOF70XWSZehvZli-54" value="has to be in" style="text;html=1;align=center;verticalAlign=middle;whiteSpace=wrap;rounded=0;fontSize=9;" vertex="1" parent="trDlRnOF70XWSZehvZli-34">
          <mxGeometry x="219.04761904761904" y="150" width="57.14285714285714" height="10" as="geometry" />
        </mxCell>
        <mxCell id="trDlRnOF70XWSZehvZli-55" value="has output" style="text;html=1;align=center;verticalAlign=middle;whiteSpace=wrap;rounded=0;fontSize=9;" vertex="1" parent="trDlRnOF70XWSZehvZli-34">
          <mxGeometry x="123.8095238095238" y="150" width="57.14285714285714" height="10" as="geometry" />
        </mxCell>
        <mxCell id="trDlRnOF70XWSZehvZli-56" value="Endpoint" style="text;html=1;align=center;verticalAlign=middle;whiteSpace=wrap;rounded=0;fontSize=9;" vertex="1" parent="trDlRnOF70XWSZehvZli-34">
          <mxGeometry x="219.04761904761904" y="20" width="57.14285714285714" height="10" as="geometry" />
        </mxCell>
        <mxCell id="trDlRnOF70XWSZehvZli-57" value="has input" style="text;html=1;align=center;verticalAlign=middle;whiteSpace=wrap;rounded=0;fontSize=9;" vertex="1" parent="trDlRnOF70XWSZehvZli-34">
          <mxGeometry x="123.8095238095238" y="20" width="57.14285714285714" height="10" as="geometry" />
        </mxCell>
        <mxCell id="trDlRnOF70XWSZehvZli-58" value="Schedule Confirmation: Yes/No" style="text;html=1;align=left;verticalAlign=top;whiteSpace=wrap;rounded=0;fontSize=9;fillColor=#d5e8d4;strokeColor=#82b366;" vertex="1" parent="trDlRnOF70XWSZehvZli-34">
          <mxGeometry y="140" width="114.28571428571428" height="40" as="geometry" />
        </mxCell>
        <mxCell id="trDlRnOF70XWSZehvZli-59" value="&lt;div&gt;Medication Schedule (Frequency, Dosage)&lt;/div&gt;&lt;div&gt;&lt;br&gt;&lt;/div&gt;" style="text;html=1;align=left;verticalAlign=top;whiteSpace=wrap;rounded=0;fontSize=9;fillColor=#d5e8d4;strokeColor=#82b366;" vertex="1" parent="trDlRnOF70XWSZehvZli-34">
          <mxGeometry y="20" width="114.28571428571428" height="40" as="geometry" />
        </mxCell>
        <mxCell id="trDlRnOF70XWSZehvZli-60" value="&lt;i&gt;/api/medication/schedule&lt;br&gt;&lt;/i&gt;Schedule: Set by Healthcare Professional" style="text;html=1;align=left;verticalAlign=top;whiteSpace=wrap;rounded=0;fontSize=9;fillColor=#d5e8d4;strokeColor=#82b366;" vertex="1" parent="trDlRnOF70XWSZehvZli-34">
          <mxGeometry x="285.7142857142857" y="20" width="114.28571428571428" height="40" as="geometry" />
        </mxCell>
        <mxCell id="trDlRnOF70XWSZehvZli-61" value="Valid Prescription format" style="text;html=1;align=left;verticalAlign=top;whiteSpace=wrap;rounded=0;fontSize=9;fillColor=#d5e8d4;strokeColor=#82b366;" vertex="1" parent="trDlRnOF70XWSZehvZli-34">
          <mxGeometry x="285.7142857142857" y="140" width="114.28571428571428" height="40" as="geometry" />
        </mxCell>
        <mxCell id="trDlRnOF70XWSZehvZli-62" value="Type: REST" style="text;html=1;align=left;verticalAlign=top;whiteSpace=wrap;rounded=0;fillColor=#dae8fc;strokeColor=#6c8ebf;fontSize=9;" vertex="1" parent="trDlRnOF70XWSZehvZli-34">
          <mxGeometry x="142.85714285714286" y="80" width="114.28571428571428" height="40" as="geometry" />
        </mxCell>
        <mxCell id="trDlRnOF70XWSZehvZli-63" value="" style="group;align=left;" connectable="0" vertex="1" parent="1">
          <mxGeometry x="440" width="400" height="180" as="geometry" />
        </mxCell>
        <mxCell id="trDlRnOF70XWSZehvZli-64" value="" style="rounded=0;whiteSpace=wrap;html=1;fillColor=#dae8fc;strokeColor=#6c8ebf;fontSize=9;" vertex="1" parent="trDlRnOF70XWSZehvZli-63">
          <mxGeometry x="142.85714285714286" y="60" width="114.28571428571428" height="60" as="geometry" />
        </mxCell>
        <mxCell id="trDlRnOF70XWSZehvZli-65" value="" style="rounded=0;whiteSpace=wrap;html=1;fillColor=#d5e8d4;strokeColor=#82b366;fontSize=9;" vertex="1" parent="trDlRnOF70XWSZehvZli-63">
          <mxGeometry x="285.7142857142857" width="114.28571428571428" height="60" as="geometry" />
        </mxCell>
        <mxCell id="trDlRnOF70XWSZehvZli-66" style="edgeStyle=orthogonalEdgeStyle;rounded=0;orthogonalLoop=1;jettySize=auto;html=1;entryX=0;entryY=0.5;entryDx=0;entryDy=0;" edge="1" parent="trDlRnOF70XWSZehvZli-63" source="trDlRnOF70XWSZehvZli-64" target="trDlRnOF70XWSZehvZli-65">
          <mxGeometry relative="1" as="geometry">
            <Array as="points">
              <mxPoint x="219.04761904761904" y="30" />
            </Array>
          </mxGeometry>
        </mxCell>
        <mxCell id="trDlRnOF70XWSZehvZli-67" value="" style="rounded=0;whiteSpace=wrap;html=1;fillColor=#d5e8d4;strokeColor=#82b366;fontSize=9;" vertex="1" parent="trDlRnOF70XWSZehvZli-63">
          <mxGeometry x="285.7142857142857" y="120" width="114.28571428571428" height="60" as="geometry" />
        </mxCell>
        <mxCell id="trDlRnOF70XWSZehvZli-68" style="edgeStyle=orthogonalEdgeStyle;rounded=0;orthogonalLoop=1;jettySize=auto;html=1;exitX=0.5;exitY=1;exitDx=0;exitDy=0;entryX=0;entryY=0.5;entryDx=0;entryDy=0;" edge="1" parent="trDlRnOF70XWSZehvZli-63" source="trDlRnOF70XWSZehvZli-64" target="trDlRnOF70XWSZehvZli-67">
          <mxGeometry relative="1" as="geometry">
            <Array as="points">
              <mxPoint x="219.04761904761904" y="120" />
              <mxPoint x="219.04761904761904" y="150" />
            </Array>
          </mxGeometry>
        </mxCell>
        <mxCell id="trDlRnOF70XWSZehvZli-69" value="" style="rounded=0;whiteSpace=wrap;html=1;fontSize=9;fillColor=#d5e8d4;strokeColor=#82b366;" vertex="1" parent="trDlRnOF70XWSZehvZli-63">
          <mxGeometry width="114.28571428571428" height="60" as="geometry" />
        </mxCell>
        <mxCell id="trDlRnOF70XWSZehvZli-70" style="edgeStyle=orthogonalEdgeStyle;rounded=0;orthogonalLoop=1;jettySize=auto;html=1;exitX=0.5;exitY=0;exitDx=0;exitDy=0;entryX=1;entryY=0.5;entryDx=0;entryDy=0;" edge="1" parent="trDlRnOF70XWSZehvZli-63" source="trDlRnOF70XWSZehvZli-64" target="trDlRnOF70XWSZehvZli-69">
          <mxGeometry relative="1" as="geometry">
            <Array as="points">
              <mxPoint x="180.95238095238093" y="60" />
              <mxPoint x="180.95238095238093" y="30" />
            </Array>
          </mxGeometry>
        </mxCell>
        <mxCell id="trDlRnOF70XWSZehvZli-71" value="" style="rounded=0;whiteSpace=wrap;html=1;fontSize=9;fillColor=#d5e8d4;strokeColor=#82b366;" vertex="1" parent="trDlRnOF70XWSZehvZli-63">
          <mxGeometry y="120" width="114.28571428571428" height="60" as="geometry" />
        </mxCell>
        <mxCell id="trDlRnOF70XWSZehvZli-72" style="edgeStyle=orthogonalEdgeStyle;rounded=0;orthogonalLoop=1;jettySize=auto;html=1;entryX=1;entryY=0.5;entryDx=0;entryDy=0;" edge="1" parent="trDlRnOF70XWSZehvZli-63" source="trDlRnOF70XWSZehvZli-64" target="trDlRnOF70XWSZehvZli-71">
          <mxGeometry relative="1" as="geometry">
            <Array as="points">
              <mxPoint x="180.95238095238093" y="150" />
            </Array>
          </mxGeometry>
        </mxCell>
        <mxCell id="trDlRnOF70XWSZehvZli-73" value="" style="endArrow=none;html=1;rounded=0;entryX=1;entryY=0.5;entryDx=0;entryDy=0;exitX=0;exitY=0.5;exitDx=0;exitDy=0;fillColor=#dae8fc;strokeColor=#6c8ebf;fontSize=9;" edge="1" parent="trDlRnOF70XWSZehvZli-63">
          <mxGeometry width="50" height="50" relative="1" as="geometry">
            <mxPoint x="142.85714285714286" y="80" as="sourcePoint" />
            <mxPoint x="257.1428571428571" y="80" as="targetPoint" />
            <Array as="points">
              <mxPoint x="200" y="80" />
            </Array>
          </mxGeometry>
        </mxCell>
        <mxCell id="trDlRnOF70XWSZehvZli-74" value="" style="endArrow=none;html=1;rounded=0;entryX=1;entryY=0.5;entryDx=0;entryDy=0;exitX=0;exitY=0.5;exitDx=0;exitDy=0;fillColor=#d5e8d4;strokeColor=#82b366;fontSize=9;" edge="1" parent="trDlRnOF70XWSZehvZli-63">
          <mxGeometry width="50" height="50" relative="1" as="geometry">
            <mxPoint x="285.7142857142857" y="20" as="sourcePoint" />
            <mxPoint x="400" y="20" as="targetPoint" />
            <Array as="points">
              <mxPoint x="342.85714285714283" y="20" />
            </Array>
          </mxGeometry>
        </mxCell>
        <mxCell id="trDlRnOF70XWSZehvZli-75" value="" style="endArrow=none;html=1;rounded=0;entryX=1;entryY=0.5;entryDx=0;entryDy=0;exitX=0;exitY=0.5;exitDx=0;exitDy=0;fontSize=9;fillColor=#d5e8d4;strokeColor=#82b366;" edge="1" parent="trDlRnOF70XWSZehvZli-63">
          <mxGeometry width="50" height="50" relative="1" as="geometry">
            <mxPoint y="20" as="sourcePoint" />
            <mxPoint x="114.28571428571428" y="20" as="targetPoint" />
            <Array as="points">
              <mxPoint x="57.14285714285714" y="20" />
            </Array>
          </mxGeometry>
        </mxCell>
        <mxCell id="trDlRnOF70XWSZehvZli-76" value="" style="endArrow=none;html=1;rounded=0;entryX=1;entryY=0.5;entryDx=0;entryDy=0;exitX=0;exitY=0.5;exitDx=0;exitDy=0;fontSize=9;fillColor=#d5e8d4;strokeColor=#82b366;" edge="1" parent="trDlRnOF70XWSZehvZli-63">
          <mxGeometry width="50" height="50" relative="1" as="geometry">
            <mxPoint y="140" as="sourcePoint" />
            <mxPoint x="114.28571428571428" y="140" as="targetPoint" />
            <Array as="points">
              <mxPoint x="57.14285714285714" y="140" />
            </Array>
          </mxGeometry>
        </mxCell>
        <mxCell id="trDlRnOF70XWSZehvZli-77" value="" style="endArrow=none;html=1;rounded=0;entryX=1;entryY=0.5;entryDx=0;entryDy=0;exitX=0;exitY=0.5;exitDx=0;exitDy=0;fillColor=#d5e8d4;strokeColor=#82b366;fontSize=9;" edge="1" parent="trDlRnOF70XWSZehvZli-63">
          <mxGeometry width="50" height="50" relative="1" as="geometry">
            <mxPoint x="285.7142857142857" y="140" as="sourcePoint" />
            <mxPoint x="400" y="140" as="targetPoint" />
            <Array as="points">
              <mxPoint x="342.85714285714283" y="140" />
            </Array>
          </mxGeometry>
        </mxCell>
        <mxCell id="trDlRnOF70XWSZehvZli-78" value="Caregiver Alert&lt;span id=&quot;docs-internal-guid-f7d3edcb-7fff-aeab-960f-f38a6a7b6d53&quot;&gt;&lt;/span&gt;" style="text;html=1;align=center;verticalAlign=middle;whiteSpace=wrap;rounded=0;fillColor=#dae8fc;strokeColor=#6c8ebf;fontSize=9;" vertex="1" parent="trDlRnOF70XWSZehvZli-63">
          <mxGeometry x="142.85714285714286" y="60" width="114.28571428571428" height="20" as="geometry" />
        </mxCell>
        <mxCell id="trDlRnOF70XWSZehvZli-79" value="Service Endpoint" style="text;html=1;align=center;verticalAlign=middle;whiteSpace=wrap;rounded=0;fillColor=#d5e8d4;strokeColor=#82b366;fontSize=9;" vertex="1" parent="trDlRnOF70XWSZehvZli-63">
          <mxGeometry x="285.7142857142857" width="114.28571428571428" height="20" as="geometry" />
        </mxCell>
        <mxCell id="trDlRnOF70XWSZehvZli-80" value="Input" style="text;html=1;align=center;verticalAlign=middle;whiteSpace=wrap;rounded=0;fontSize=9;fillColor=#d5e8d4;strokeColor=#82b366;" vertex="1" parent="trDlRnOF70XWSZehvZli-63">
          <mxGeometry width="114.28571428571428" height="20" as="geometry" />
        </mxCell>
        <mxCell id="trDlRnOF70XWSZehvZli-81" value="Output" style="text;html=1;align=center;verticalAlign=middle;whiteSpace=wrap;rounded=0;fontSize=9;fillColor=#d5e8d4;strokeColor=#82b366;" vertex="1" parent="trDlRnOF70XWSZehvZli-63">
          <mxGeometry y="120" width="114.28571428571428" height="20" as="geometry" />
        </mxCell>
        <mxCell id="trDlRnOF70XWSZehvZli-82" value="Precondition" style="text;html=1;align=center;verticalAlign=middle;whiteSpace=wrap;rounded=0;fillColor=#d5e8d4;strokeColor=#82b366;fontSize=9;" vertex="1" parent="trDlRnOF70XWSZehvZli-63">
          <mxGeometry x="285.7142857142857" y="120" width="114.28571428571428" height="20" as="geometry" />
        </mxCell>
        <mxCell id="trDlRnOF70XWSZehvZli-83" value="has to be in" style="text;html=1;align=center;verticalAlign=middle;whiteSpace=wrap;rounded=0;fontSize=9;" vertex="1" parent="trDlRnOF70XWSZehvZli-63">
          <mxGeometry x="219.04761904761904" y="150" width="57.14285714285714" height="10" as="geometry" />
        </mxCell>
        <mxCell id="trDlRnOF70XWSZehvZli-84" value="has output" style="text;html=1;align=center;verticalAlign=middle;whiteSpace=wrap;rounded=0;fontSize=9;" vertex="1" parent="trDlRnOF70XWSZehvZli-63">
          <mxGeometry x="123.8095238095238" y="150" width="57.14285714285714" height="10" as="geometry" />
        </mxCell>
        <mxCell id="trDlRnOF70XWSZehvZli-85" value="Endpoint" style="text;html=1;align=center;verticalAlign=middle;whiteSpace=wrap;rounded=0;fontSize=9;" vertex="1" parent="trDlRnOF70XWSZehvZli-63">
          <mxGeometry x="219.04761904761904" y="20" width="57.14285714285714" height="10" as="geometry" />
        </mxCell>
        <mxCell id="trDlRnOF70XWSZehvZli-86" value="has input" style="text;html=1;align=center;verticalAlign=middle;whiteSpace=wrap;rounded=0;fontSize=9;" vertex="1" parent="trDlRnOF70XWSZehvZli-63">
          <mxGeometry x="123.8095238095238" y="20" width="57.14285714285714" height="10" as="geometry" />
        </mxCell>
        <mxCell id="trDlRnOF70XWSZehvZli-87" value="SMS Alert&lt;span id=&quot;docs-internal-guid-fcc6ee87-7fff-d0a0-53d4-8e090632c626&quot;&gt;&lt;/span&gt;" style="text;html=1;align=left;verticalAlign=top;whiteSpace=wrap;rounded=0;fontSize=9;fillColor=#d5e8d4;strokeColor=#82b366;" vertex="1" parent="trDlRnOF70XWSZehvZli-63">
          <mxGeometry y="140" width="114.28571428571428" height="40" as="geometry" />
        </mxCell>
        <mxCell id="trDlRnOF70XWSZehvZli-88" value="Medication Intake Status: Yes/No" style="text;html=1;align=left;verticalAlign=top;whiteSpace=wrap;rounded=0;fontSize=9;fillColor=#d5e8d4;strokeColor=#82b366;" vertex="1" parent="trDlRnOF70XWSZehvZli-63">
          <mxGeometry y="20" width="114.28571428571428" height="40" as="geometry" />
        </mxCell>
        <mxCell id="trDlRnOF70XWSZehvZli-89" value="Twilio API&lt;br&gt;Schedule: Triggered on Medication Event" style="text;html=1;align=left;verticalAlign=top;whiteSpace=wrap;rounded=0;fillColor=#d5e8d4;strokeColor=#82b366;fontSize=9;" vertex="1" parent="trDlRnOF70XWSZehvZli-63">
          <mxGeometry x="285.7142857142857" y="20" width="114.28571428571428" height="40" as="geometry" />
        </mxCell>
        <mxCell id="trDlRnOF70XWSZehvZli-90" value="Medication Due/Intake Confirmed&lt;span id=&quot;docs-internal-guid-c93c9a99-7fff-12fa-e2a2-76f09f57dba6&quot;&gt;&lt;/span&gt;" style="text;html=1;align=left;verticalAlign=top;whiteSpace=wrap;rounded=0;fillColor=#d5e8d4;strokeColor=#82b366;fontSize=9;" vertex="1" parent="trDlRnOF70XWSZehvZli-63">
          <mxGeometry x="285.7142857142857" y="140" width="114.28571428571428" height="40" as="geometry" />
        </mxCell>
        <mxCell id="trDlRnOF70XWSZehvZli-91" value="Type: REST" style="text;html=1;align=left;verticalAlign=top;whiteSpace=wrap;rounded=0;fillColor=#dae8fc;strokeColor=#6c8ebf;fontSize=9;" vertex="1" parent="trDlRnOF70XWSZehvZli-63">
          <mxGeometry x="142.85714285714286" y="80" width="114.28571428571428" height="40" as="geometry" />
        </mxCell>
        <mxCell id="trDlRnOF70XWSZehvZli-122" value="" style="group;align=left;" connectable="0" vertex="1" parent="1">
          <mxGeometry x="440" y="190" width="400" height="180" as="geometry" />
        </mxCell>
        <mxCell id="trDlRnOF70XWSZehvZli-123" value="" style="rounded=0;whiteSpace=wrap;html=1;fillColor=#dae8fc;strokeColor=#6c8ebf;fontSize=9;" vertex="1" parent="trDlRnOF70XWSZehvZli-122">
          <mxGeometry x="142.85714285714286" y="60" width="114.28571428571428" height="60" as="geometry" />
        </mxCell>
        <mxCell id="trDlRnOF70XWSZehvZli-124" value="" style="rounded=0;whiteSpace=wrap;html=1;fillColor=#d5e8d4;strokeColor=#82b366;fontSize=9;" vertex="1" parent="trDlRnOF70XWSZehvZli-122">
          <mxGeometry x="285.7142857142857" width="114.28571428571428" height="60" as="geometry" />
        </mxCell>
        <mxCell id="trDlRnOF70XWSZehvZli-125" style="edgeStyle=orthogonalEdgeStyle;rounded=0;orthogonalLoop=1;jettySize=auto;html=1;entryX=0;entryY=0.5;entryDx=0;entryDy=0;" edge="1" parent="trDlRnOF70XWSZehvZli-122" source="trDlRnOF70XWSZehvZli-123" target="trDlRnOF70XWSZehvZli-124">
          <mxGeometry relative="1" as="geometry">
            <Array as="points">
              <mxPoint x="219.04761904761904" y="30" />
            </Array>
          </mxGeometry>
        </mxCell>
        <mxCell id="trDlRnOF70XWSZehvZli-126" value="" style="rounded=0;whiteSpace=wrap;html=1;fillColor=#d5e8d4;strokeColor=#82b366;fontSize=9;" vertex="1" parent="trDlRnOF70XWSZehvZli-122">
          <mxGeometry x="285.7142857142857" y="120" width="114.28571428571428" height="60" as="geometry" />
        </mxCell>
        <mxCell id="trDlRnOF70XWSZehvZli-127" style="edgeStyle=orthogonalEdgeStyle;rounded=0;orthogonalLoop=1;jettySize=auto;html=1;exitX=0.5;exitY=1;exitDx=0;exitDy=0;entryX=0;entryY=0.5;entryDx=0;entryDy=0;" edge="1" parent="trDlRnOF70XWSZehvZli-122" source="trDlRnOF70XWSZehvZli-123" target="trDlRnOF70XWSZehvZli-126">
          <mxGeometry relative="1" as="geometry">
            <Array as="points">
              <mxPoint x="219.04761904761904" y="120" />
              <mxPoint x="219.04761904761904" y="150" />
            </Array>
          </mxGeometry>
        </mxCell>
        <mxCell id="trDlRnOF70XWSZehvZli-128" value="" style="rounded=0;whiteSpace=wrap;html=1;fontSize=9;fillColor=#d5e8d4;strokeColor=#82b366;" vertex="1" parent="trDlRnOF70XWSZehvZli-122">
          <mxGeometry width="114.28571428571428" height="60" as="geometry" />
        </mxCell>
        <mxCell id="trDlRnOF70XWSZehvZli-129" style="edgeStyle=orthogonalEdgeStyle;rounded=0;orthogonalLoop=1;jettySize=auto;html=1;exitX=0.5;exitY=0;exitDx=0;exitDy=0;entryX=1;entryY=0.5;entryDx=0;entryDy=0;" edge="1" parent="trDlRnOF70XWSZehvZli-122" source="trDlRnOF70XWSZehvZli-123" target="trDlRnOF70XWSZehvZli-128">
          <mxGeometry relative="1" as="geometry">
            <Array as="points">
              <mxPoint x="180.95238095238093" y="60" />
              <mxPoint x="180.95238095238093" y="30" />
            </Array>
          </mxGeometry>
        </mxCell>
        <mxCell id="trDlRnOF70XWSZehvZli-130" value="" style="rounded=0;whiteSpace=wrap;html=1;fontSize=9;fillColor=#d5e8d4;strokeColor=#82b366;" vertex="1" parent="trDlRnOF70XWSZehvZli-122">
          <mxGeometry y="120" width="114.28571428571428" height="60" as="geometry" />
        </mxCell>
        <mxCell id="trDlRnOF70XWSZehvZli-131" style="edgeStyle=orthogonalEdgeStyle;rounded=0;orthogonalLoop=1;jettySize=auto;html=1;entryX=1;entryY=0.5;entryDx=0;entryDy=0;" edge="1" parent="trDlRnOF70XWSZehvZli-122" source="trDlRnOF70XWSZehvZli-123" target="trDlRnOF70XWSZehvZli-130">
          <mxGeometry relative="1" as="geometry">
            <Array as="points">
              <mxPoint x="180.95238095238093" y="150" />
            </Array>
          </mxGeometry>
        </mxCell>
        <mxCell id="trDlRnOF70XWSZehvZli-132" value="" style="endArrow=none;html=1;rounded=0;entryX=1;entryY=0.5;entryDx=0;entryDy=0;exitX=0;exitY=0.5;exitDx=0;exitDy=0;fillColor=#dae8fc;strokeColor=#6c8ebf;fontSize=9;" edge="1" parent="trDlRnOF70XWSZehvZli-122">
          <mxGeometry width="50" height="50" relative="1" as="geometry">
            <mxPoint x="142.85714285714286" y="80" as="sourcePoint" />
            <mxPoint x="257.1428571428571" y="80" as="targetPoint" />
            <Array as="points">
              <mxPoint x="200" y="80" />
            </Array>
          </mxGeometry>
        </mxCell>
        <mxCell id="trDlRnOF70XWSZehvZli-133" value="" style="endArrow=none;html=1;rounded=0;entryX=1;entryY=0.5;entryDx=0;entryDy=0;exitX=0;exitY=0.5;exitDx=0;exitDy=0;fillColor=#d5e8d4;strokeColor=#82b366;fontSize=9;" edge="1" parent="trDlRnOF70XWSZehvZli-122">
          <mxGeometry width="50" height="50" relative="1" as="geometry">
            <mxPoint x="285.7142857142857" y="20" as="sourcePoint" />
            <mxPoint x="400" y="20" as="targetPoint" />
            <Array as="points">
              <mxPoint x="342.85714285714283" y="20" />
            </Array>
          </mxGeometry>
        </mxCell>
        <mxCell id="trDlRnOF70XWSZehvZli-134" value="" style="endArrow=none;html=1;rounded=0;entryX=1;entryY=0.5;entryDx=0;entryDy=0;exitX=0;exitY=0.5;exitDx=0;exitDy=0;fontSize=9;fillColor=#d5e8d4;strokeColor=#82b366;" edge="1" parent="trDlRnOF70XWSZehvZli-122">
          <mxGeometry width="50" height="50" relative="1" as="geometry">
            <mxPoint y="20" as="sourcePoint" />
            <mxPoint x="114.28571428571428" y="20" as="targetPoint" />
            <Array as="points">
              <mxPoint x="57.14285714285714" y="20" />
            </Array>
          </mxGeometry>
        </mxCell>
        <mxCell id="trDlRnOF70XWSZehvZli-135" value="" style="endArrow=none;html=1;rounded=0;entryX=1;entryY=0.5;entryDx=0;entryDy=0;exitX=0;exitY=0.5;exitDx=0;exitDy=0;fontSize=9;fillColor=#d5e8d4;strokeColor=#82b366;" edge="1" parent="trDlRnOF70XWSZehvZli-122">
          <mxGeometry width="50" height="50" relative="1" as="geometry">
            <mxPoint y="140" as="sourcePoint" />
            <mxPoint x="114.28571428571428" y="140" as="targetPoint" />
            <Array as="points">
              <mxPoint x="57.14285714285714" y="140" />
            </Array>
          </mxGeometry>
        </mxCell>
        <mxCell id="trDlRnOF70XWSZehvZli-136" value="" style="endArrow=none;html=1;rounded=0;entryX=1;entryY=0.5;entryDx=0;entryDy=0;exitX=0;exitY=0.5;exitDx=0;exitDy=0;fillColor=#d5e8d4;strokeColor=#82b366;fontSize=9;" edge="1" parent="trDlRnOF70XWSZehvZli-122">
          <mxGeometry width="50" height="50" relative="1" as="geometry">
            <mxPoint x="285.7142857142857" y="140" as="sourcePoint" />
            <mxPoint x="400" y="140" as="targetPoint" />
            <Array as="points">
              <mxPoint x="342.85714285714283" y="140" />
            </Array>
          </mxGeometry>
        </mxCell>
        <mxCell id="trDlRnOF70XWSZehvZli-137" value="&lt;span id=&quot;docs-internal-guid-90173e45-7fff-5bf4-6d2b-80f797eb5aa6&quot;&gt;&lt;/span&gt;Intake Confirmation" style="text;html=1;align=center;verticalAlign=middle;whiteSpace=wrap;rounded=0;fillColor=#dae8fc;strokeColor=#6c8ebf;fontSize=9;" vertex="1" parent="trDlRnOF70XWSZehvZli-122">
          <mxGeometry x="142.85714285714286" y="60" width="114.28571428571428" height="20" as="geometry" />
        </mxCell>
        <mxCell id="trDlRnOF70XWSZehvZli-138" value="Service Endpoint" style="text;html=1;align=center;verticalAlign=middle;whiteSpace=wrap;rounded=0;fillColor=#d5e8d4;strokeColor=#82b366;fontSize=9;" vertex="1" parent="trDlRnOF70XWSZehvZli-122">
          <mxGeometry x="285.7142857142857" width="114.28571428571428" height="20" as="geometry" />
        </mxCell>
        <mxCell id="trDlRnOF70XWSZehvZli-139" value="Input" style="text;html=1;align=center;verticalAlign=middle;whiteSpace=wrap;rounded=0;fontSize=9;fillColor=#d5e8d4;strokeColor=#82b366;" vertex="1" parent="trDlRnOF70XWSZehvZli-122">
          <mxGeometry width="114.28571428571428" height="20" as="geometry" />
        </mxCell>
        <mxCell id="trDlRnOF70XWSZehvZli-140" value="Output" style="text;html=1;align=center;verticalAlign=middle;whiteSpace=wrap;rounded=0;fontSize=9;fillColor=#d5e8d4;strokeColor=#82b366;" vertex="1" parent="trDlRnOF70XWSZehvZli-122">
          <mxGeometry y="120" width="114.28571428571428" height="20" as="geometry" />
        </mxCell>
        <mxCell id="trDlRnOF70XWSZehvZli-141" value="Precondition" style="text;html=1;align=center;verticalAlign=middle;whiteSpace=wrap;rounded=0;fillColor=#d5e8d4;strokeColor=#82b366;fontSize=9;" vertex="1" parent="trDlRnOF70XWSZehvZli-122">
          <mxGeometry x="285.7142857142857" y="120" width="114.28571428571428" height="20" as="geometry" />
        </mxCell>
        <mxCell id="trDlRnOF70XWSZehvZli-142" value="has to be in" style="text;html=1;align=center;verticalAlign=middle;whiteSpace=wrap;rounded=0;fontSize=9;" vertex="1" parent="trDlRnOF70XWSZehvZli-122">
          <mxGeometry x="219.04761904761904" y="150" width="57.14285714285714" height="10" as="geometry" />
        </mxCell>
        <mxCell id="trDlRnOF70XWSZehvZli-143" value="has output" style="text;html=1;align=center;verticalAlign=middle;whiteSpace=wrap;rounded=0;fontSize=9;" vertex="1" parent="trDlRnOF70XWSZehvZli-122">
          <mxGeometry x="123.8095238095238" y="150" width="57.14285714285714" height="10" as="geometry" />
        </mxCell>
        <mxCell id="trDlRnOF70XWSZehvZli-144" value="Endpoint" style="text;html=1;align=center;verticalAlign=middle;whiteSpace=wrap;rounded=0;fontSize=9;" vertex="1" parent="trDlRnOF70XWSZehvZli-122">
          <mxGeometry x="219.04761904761904" y="20" width="57.14285714285714" height="10" as="geometry" />
        </mxCell>
        <mxCell id="trDlRnOF70XWSZehvZli-145" value="has input" style="text;html=1;align=center;verticalAlign=middle;whiteSpace=wrap;rounded=0;fontSize=9;" vertex="1" parent="trDlRnOF70XWSZehvZli-122">
          <mxGeometry x="123.8095238095238" y="20" width="57.14285714285714" height="10" as="geometry" />
        </mxCell>
        <mxCell id="trDlRnOF70XWSZehvZli-146" value="&lt;div&gt;Confirmation Receipt&lt;/div&gt;&lt;div&gt;&lt;br&gt;&lt;/div&gt;" style="text;html=1;align=left;verticalAlign=top;whiteSpace=wrap;rounded=0;fontSize=9;fillColor=#d5e8d4;strokeColor=#82b366;" vertex="1" parent="trDlRnOF70XWSZehvZli-122">
          <mxGeometry y="140" width="114.28571428571428" height="40" as="geometry" />
        </mxCell>
        <mxCell id="trDlRnOF70XWSZehvZli-147" value="User Confirmation Input" style="text;html=1;align=left;verticalAlign=top;whiteSpace=wrap;rounded=0;fontSize=9;fillColor=#d5e8d4;strokeColor=#82b366;" vertex="1" parent="trDlRnOF70XWSZehvZli-122">
          <mxGeometry y="20" width="114.28571428571428" height="40" as="geometry" />
        </mxCell>
        <mxCell id="trDlRnOF70XWSZehvZli-148" value="&lt;i&gt;/api/medication/confirm&lt;br&gt;&lt;br&gt;&lt;/i&gt;" style="text;html=1;align=left;verticalAlign=top;whiteSpace=wrap;rounded=0;fillColor=#d5e8d4;strokeColor=#82b366;fontSize=9;" vertex="1" parent="trDlRnOF70XWSZehvZli-122">
          <mxGeometry x="285.7142857142857" y="20" width="114.28571428571428" height="40" as="geometry" />
        </mxCell>
        <mxCell id="trDlRnOF70XWSZehvZli-149" value="Medication Reminder Triggered&lt;span id=&quot;docs-internal-guid-c93c9a99-7fff-12fa-e2a2-76f09f57dba6&quot;&gt;&lt;/span&gt;" style="text;html=1;align=left;verticalAlign=top;whiteSpace=wrap;rounded=0;fillColor=#d5e8d4;strokeColor=#82b366;fontSize=9;" vertex="1" parent="trDlRnOF70XWSZehvZli-122">
          <mxGeometry x="285.7142857142857" y="140" width="114.28571428571428" height="40" as="geometry" />
        </mxCell>
        <mxCell id="trDlRnOF70XWSZehvZli-150" value="Type: REST" style="text;html=1;align=left;verticalAlign=top;whiteSpace=wrap;rounded=0;fillColor=#dae8fc;strokeColor=#6c8ebf;fontSize=9;" vertex="1" parent="trDlRnOF70XWSZehvZli-122">
          <mxGeometry x="142.85714285714286" y="80" width="114.28571428571428" height="40" as="geometry" />
        </mxCell>
      </root>
    </mxGraphModel>
  </diagram>
</mxfile>
